<?xml version="1.0" encoding="utf-8"?>
<!-- Generator: Adobe Illustrator 23.1.0, SVG Export Plug-In . SVG Version: 6.00 Build 0)  -->
<svg version="1.1" id="Layer_1" xmlns="http://www.w3.org/2000/svg" xmlns:xlink="http://www.w3.org/1999/xlink" x="0px" y="0px"
	 viewBox="0 0 48 48" style="enable-background:new 0 0 48 48;" xml:space="preserve">
<style type="text/css">
	.st0{fill:#FFFFFF;}
	.st1{fill:#333333;}
</style>
<title>Untitled-1</title>
<path class="st0" d="M27.22,30.3h6.15l1-6.25h-7.15v-3.41c0-2.6,0.84-4.9,3.27-4.9h3.9v-5.45c-1.61-0.22-3.24-0.32-4.87-0.3
	c-5.72,0-9.07,3-9.07,9.91v4.15h-5.88v6.25h5.87v17.17c1.18,0.19,2.37,0.28,3.56,0.29c1.08-0.01,2.15-0.09,3.22-0.24L27.22,30.3z"/>
<g>
	<path class="st1" d="M-54.72-8.24c-7.98,0-14.49,6.51-14.49,14.49v18.9c0,7.98,6.51,14.49,14.49,14.49h18.9
		c7.98,0,14.49-6.51,14.49-14.49V6.26c0-7.98-6.51-14.49-14.49-14.49H-54.72z M-54.72-4.46h18.9c5.94,0,10.71,4.77,10.71,10.71v18.9
		c0,5.94-4.77,10.71-10.71,10.71h-18.9c-5.94,0-10.71-4.77-10.71-10.71V6.26C-65.43,0.32-60.65-4.46-54.72-4.46z M-32.66,0.59
		c-1.39,0-2.52,1.13-2.52,2.52s1.13,2.52,2.52,2.52c1.39,0,2.52-1.13,2.52-2.52S-31.27,0.59-32.66,0.59z M-45.26,3.11
		c-6.94,0-12.6,5.66-12.6,12.6s5.66,12.6,12.6,12.6s12.6-5.66,12.6-12.6S-38.33,3.11-45.26,3.11z M-45.26,6.89
		c4.89,0,8.82,3.93,8.82,8.82s-3.93,8.82-8.82,8.82s-8.82-3.93-8.82-8.82S-50.16,6.89-45.26,6.89z"/>
</g>
<path class="st1" d="M24.06,0.29C11,0.29,0.28,10.37,0.28,22.89c0,6.41,2.9,12.14,7.39,16.23L7.58,43.3
	c-0.07,3.34,3.72,5.57,6.61,3.89l4.25-2.47c1.81,0.42,3.66,0.75,5.62,0.75c13.06,0,23.78-10.08,23.78-22.59S37.12,0.29,24.06,0.29z
	 M24.06,3.86c11.24,0,20.21,8.55,20.21,19.02S35.3,41.91,24.06,41.91c-1.92,0-3.77-0.27-5.55-0.74c-0.46-0.12-0.95-0.06-1.36,0.18
	l-4.76,2.76c-0.64,0.37-1.26,0-1.25-0.74l0.1-4.91c0.01-0.54-0.22-1.05-0.64-1.4c-4.16-3.5-6.77-8.54-6.77-14.17
	C3.85,12.41,12.82,3.86,24.06,3.86z M36.04,15.88c-0.3-0.05-0.63,0-0.9,0.19l-7.87,5.45l-4.11-3.61l-0.29-0.25l-0.16-0.13
	c-1.23-0.93-2.98-0.68-3.91,0.55l-7.46,9.89l-0.02,0.03c-0.3,0.4-0.33,0.97-0.03,1.41c0.38,0.54,1.13,0.68,1.67,0.3l7.87-5.45
	l4.11,3.61l0.29,0.25l0.16,0.13c1.23,0.93,2.98,0.68,3.91-0.55l7.46-9.89l0.02-0.03c0.3-0.4,0.33-0.97,0.03-1.41
	C36.62,16.1,36.34,15.93,36.04,15.88z"/>
</svg>
