<?xml version="1.0" encoding="utf-8"?>
<!-- Generator: Adobe Illustrator 23.1.0, SVG Export Plug-In . SVG Version: 6.00 Build 0)  -->
<svg version="1.1" id="Layer_1" xmlns="http://www.w3.org/2000/svg" xmlns:xlink="http://www.w3.org/1999/xlink" x="0px" y="0px"
	 viewBox="0 0 48 48" style="enable-background:new 0 0 48 48;" xml:space="preserve">
<style type="text/css">
	.st0{fill:#FFFFFF;}
	.st1{fill:#333333;}
</style>
<title>Untitled-1</title>
<path class="st0" d="M27.22,30.3h6.15l1-6.25h-7.15v-3.41c0-2.6,0.84-4.9,3.27-4.9h3.9v-5.45c-1.61-0.22-3.24-0.32-4.87-0.3
	c-5.72,0-9.07,3-9.07,9.91v4.15h-5.88v6.25h5.87v17.17c1.18,0.19,2.37,0.28,3.56,0.29c1.08-0.01,2.15-0.09,3.22-0.24L27.22,30.3z"/>
<g>
	<path class="st1" d="M-54.72-8.24c-7.98,0-14.49,6.51-14.49,14.49v18.9c0,7.98,6.51,14.49,14.49,14.49h18.9
		c7.98,0,14.49-6.51,14.49-14.49V6.26c0-7.98-6.51-14.49-14.49-14.49H-54.72z M-54.72-4.46h18.9c5.94,0,10.71,4.77,10.71,10.71v18.9
		c0,5.94-4.77,10.71-10.71,10.71h-18.9c-5.94,0-10.71-4.77-10.71-10.71V6.26C-65.43,0.32-60.65-4.46-54.72-4.46z M-32.66,0.59
		c-1.39,0-2.52,1.13-2.52,2.52s1.13,2.52,2.52,2.52c1.39,0,2.52-1.13,2.52-2.52S-31.27,0.59-32.66,0.59z M-45.26,3.11
		c-6.94,0-12.6,5.66-12.6,12.6s5.66,12.6,12.6,12.6s12.6-5.66,12.6-12.6S-38.33,3.11-45.26,3.11z M-45.26,6.89
		c4.89,0,8.82,3.93,8.82,8.82s-3.93,8.82-8.82,8.82s-8.82-3.93-8.82-8.82S-50.16,6.89-45.26,6.89z"/>
</g>
<path class="st1" d="M99.06-14.67c-0.34-0.35-0.85-0.45-1.29-0.24l-0.19,0.09c-0.16,0.07-0.32,0.15-0.47,0.22
	c0.46-0.74,0.83-1.53,1.08-2.34c0.14-0.45-0.01-0.94-0.39-1.23s-0.89-0.32-1.29-0.07c-1.3,0.79-2.54,1.35-3.83,1.75
	c-1.94-1.88-4.59-3.05-7.51-3.05c-5.96,0-10.79,4.83-10.79,10.79c0,0.01,0,0.23,0,0.57L73.26-8.3c-11.04-1.31-14.19-8.73-14.32-9.05
	c-0.21-0.53-0.68-0.92-1.24-1.04c-0.56-0.12-1.14,0.06-1.55,0.46c-0.22,0.23-2.2,2.32-2.2,6.32c0,2.85,1.27,5.16,2.91,6.96
	c-0.77-0.47-1.21-0.85-1.22-0.86c-0.52-0.46-1.27-0.55-1.9-0.24c-0.62,0.32-0.99,0.98-0.92,1.67c0.02,0.24,0.51,4.79,5.76,8.22
	l-0.96,0.17c-0.58,0.11-1.07,0.5-1.28,1.05c-0.21,0.55-0.13,1.17,0.22,1.64c0.12,0.16,2.34,3.04,7.15,4.7
	c-2.57,0.86-6.11,1.66-10.33,1.66c-0.67,0-1.28,0.39-1.55,1c-0.28,0.61-0.17,1.32,0.27,1.83c0.18,0.21,4.62,5.13,16.05,5.13
	c18.98,0,27.83-17.62,27.83-29.53v-0.57c0-0.17-0.02-0.33-0.02-0.5c2.38-2.3,3.27-4.02,3.31-4.1C99.48-13.81,99.4-14.33,99.06-14.67
	z"/>
<path class="st1" d="M15.22,0.31c-8.27,0-15.01,6.74-15.01,15.01c0,2.24,0.56,4.34,1.44,6.24c-0.1,0.81-0.19,1.64-0.19,2.51
	c0,12.42,10.1,22.52,22.52,22.52c0.88,0,1.7-0.09,2.51-0.19c1.91,0.88,4,1.44,6.24,1.44c8.27,0,15.01-6.74,15.01-15.01
	c0-2.24-0.56-4.34-1.44-6.24c0.1-0.81,0.19-1.64,0.19-2.51c0-12.42-10.1-22.52-22.52-22.52c-0.88,0-1.7,0.09-2.51,0.19
	C19.56,0.87,17.46,0.31,15.22,0.31z M15.22,4.06c1.85,0,3.59,0.45,5.14,1.25c0.34,0.18,0.73,0.24,1.11,0.19
	c0.86-0.11,1.69-0.19,2.51-0.19c10.39,0,18.77,8.38,18.77,18.77c0,0.83-0.08,1.66-0.19,2.51c-0.05,0.38,0.02,0.77,0.19,1.11
	c0.8,1.55,1.25,3.28,1.25,5.14c0,6.24-5.02,11.26-11.26,11.26c-1.85,0-3.59-0.45-5.14-1.25c-0.34-0.18-0.73-0.24-1.11-0.19
	c-0.86,0.11-1.69,0.19-2.51,0.19c-10.39,0-18.77-8.38-18.77-18.77c0-0.83,0.08-1.66,0.19-2.51c0.05-0.38-0.02-0.77-0.19-1.11
	c-0.8-1.55-1.25-3.28-1.25-5.14C3.96,9.08,8.98,4.06,15.22,4.06z M24.85,11.3c-9.38,0-9.74,5.95-9.74,7.25
	c0,7.46,12.66,7.12,12.66,11.61c0,2.74-2.96,2.86-4.28,2.86c-2.49,0-5.08-1.82-6.01-1.82c-0.93,0-2.29,0.74-2.29,2.03
	c0,3.18,5.63,3.86,7.03,3.86c1.36,0,10.74,0.41,10.74-7.27c0-7.8-12.6-7.81-12.6-11.58c0-0.38-0.11-3.01,4.28-3.01
	c3.18,0,3.8,1.41,5.36,1.41c0.8,0,2-0.45,2-2.21C31.99,12.02,27.37,11.3,24.85,11.3z"/>
</svg>
