<?xml version="1.0" encoding="utf-8"?>
<!-- Generator: Adobe Illustrator 23.1.0, SVG Export Plug-In . SVG Version: 6.00 Build 0)  -->
<svg version="1.1" id="Layer_1" xmlns="http://www.w3.org/2000/svg" xmlns:xlink="http://www.w3.org/1999/xlink" x="0px" y="0px"
	 viewBox="0 0 48 48" style="enable-background:new 0 0 48 48;" xml:space="preserve">
<style type="text/css">
	.st0{fill:#FFFFFF;}
	.st1{fill:#333333;}
</style>
<title>Untitled-1</title>
<path class="st0" d="M27.22,30.3h6.15l1-6.25h-7.15v-3.41c0-2.6,0.84-4.9,3.27-4.9h3.9v-5.45c-1.61-0.22-3.24-0.32-4.87-0.3
	c-5.72,0-9.07,3-9.07,9.91v4.15h-5.88v6.25h5.87v17.17c1.18,0.19,2.37,0.28,3.56,0.29c1.08-0.01,2.15-0.09,3.22-0.24L27.22,30.3z"/>
<g>
	<path class="st1" d="M-54.72-8.24c-7.98,0-14.49,6.51-14.49,14.49v18.9c0,7.98,6.51,14.49,14.49,14.49h18.9
		c7.98,0,14.49-6.51,14.49-14.49V6.26c0-7.98-6.51-14.49-14.49-14.49H-54.72z M-54.72-4.46h18.9c5.94,0,10.71,4.77,10.71,10.71v18.9
		c0,5.94-4.77,10.71-10.71,10.71h-18.9c-5.94,0-10.71-4.77-10.71-10.71V6.26C-65.43,0.32-60.65-4.46-54.72-4.46z M-32.66,0.59
		c-1.39,0-2.52,1.13-2.52,2.52s1.13,2.52,2.52,2.52c1.39,0,2.52-1.13,2.52-2.52S-31.27,0.59-32.66,0.59z M-45.26,3.11
		c-6.94,0-12.6,5.66-12.6,12.6s5.66,12.6,12.6,12.6s12.6-5.66,12.6-12.6S-38.33,3.11-45.26,3.11z M-45.26,6.89
		c4.89,0,8.82,3.93,8.82,8.82s-3.93,8.82-8.82,8.82s-8.82-3.93-8.82-8.82S-50.16,6.89-45.26,6.89z"/>
</g>
<path class="st1" d="M24,0.29c-13.11,0-23.78,10.67-23.78,23.78c0,3.89,1.03,7.53,2.69,10.78l-2.58,9.23
	c-0.6,2.14,1.52,4.26,3.66,3.66l9.24-2.58c3.24,1.66,6.88,2.68,10.77,2.68c13.11,0,23.78-10.67,23.78-23.78S37.11,0.29,24,0.29z
	 M24,3.86c11.18,0,20.21,9.03,20.21,20.21S35.18,44.29,24,44.29c-3.57,0-6.91-0.93-9.82-2.55c-0.41-0.23-0.89-0.29-1.35-0.16
	l-8.78,2.45l2.45-8.78c0.13-0.45,0.07-0.94-0.16-1.35c-1.63-2.91-2.56-6.25-2.56-9.83C3.79,12.89,12.82,3.86,24,3.86z M15.96,13.37
	c-0.38,0-0.99,0.14-1.51,0.71c-0.52,0.57-1.99,1.94-1.99,4.73s2.03,5.49,2.32,5.87c0.28,0.38,3.93,6.3,9.7,8.57
	c4.8,1.89,5.77,1.51,6.81,1.42c1.04-0.09,3.36-1.37,3.83-2.7c0.47-1.33,0.47-2.46,0.33-2.7c-0.14-0.24-0.52-0.38-1.09-0.66
	c-0.57-0.28-3.36-1.66-3.88-1.85c-0.52-0.19-0.9-0.29-1.28,0.28c-0.38,0.57-1.47,1.85-1.8,2.22c-0.33,0.38-0.66,0.43-1.23,0.14
	c-0.57-0.29-2.4-0.88-4.57-2.82c-1.69-1.5-2.82-3.36-3.16-3.93c-0.33-0.57-0.04-0.88,0.25-1.16c0.26-0.25,0.57-0.66,0.85-0.99
	c0.28-0.33,0.38-0.57,0.56-0.95c0.19-0.38,0.1-0.71-0.05-0.99s-1.25-3.09-1.75-4.22c-0.42-0.94-0.87-0.96-1.28-0.98
	C16.72,13.37,16.34,13.37,15.96,13.37z"/>
</svg>
