<?xml version="1.0" encoding="utf-8"?>
<!-- Generator: Adobe Illustrator 23.1.0, SVG Export Plug-In . SVG Version: 6.00 Build 0)  -->
<svg version="1.1" id="Layer_1" xmlns="http://www.w3.org/2000/svg" xmlns:xlink="http://www.w3.org/1999/xlink" x="0px" y="0px"
	 viewBox="0 0 48 48" style="enable-background:new 0 0 48 48;" xml:space="preserve">
<style type="text/css">
	.st0{fill:url(#SVGID_1_);}
	.st1{fill:#FFFFFF;}
</style>
<title>Untitled-1</title>
<linearGradient id="SVGID_1_" gradientUnits="userSpaceOnUse" x1="7.3615" y1="-17.6415" x2="43.7415" y2="18.7385" gradientTransform="matrix(1 0 0 1 0 25)">
	<stop  offset="0" style="stop-color:#489ED7"/>
	<stop  offset="1" style="stop-color:#3177BC"/>
</linearGradient>
<path class="st0" d="M24,0.24C10.88,0.24,0.24,10.88,0.24,24S10.88,47.76,24,47.76S47.76,37.12,47.76,24l0,0
	C47.77,10.88,37.14,0.25,24.02,0.24C24.01,0.24,24.01,0.24,24,0.24z"/>
<path class="st1" d="M27.22,30.3h6.15l1-6.25h-7.15v-3.41c0-2.6,0.84-4.9,3.27-4.9h3.9v-5.45c-1.61-0.22-3.24-0.32-4.87-0.3
	c-5.72,0-9.07,3-9.07,9.91v4.15h-5.88v6.25h5.87v17.17c1.18,0.19,2.37,0.28,3.56,0.29c1.08-0.01,2.15-0.09,3.22-0.24L27.22,30.3z"/>
</svg>
