<svg id="Layer_1" data-name="Layer 1" xmlns="http://www.w3.org/2000/svg" viewBox="0 0 112.41 48"><defs><style>.cls-1{fill:#404145;}.cls-2{fill:#1dbf73;}</style></defs><title>fiverr</title><path class="cls-1" d="M93.28,24.78h-3.1c-2,0-3.1,1.5-3.1,4.1v9.3h-6V24.78h-2.5c-2,0-3.1,1.5-3.1,4.1v9.3h-6V19.78h6v2.8a4.11,4.11,0,0,1,4.3-2.8h7.3v2.8a4.11,4.11,0,0,1,4.3-2.8h2Zm-25.2,5.6H55.68a3.4,3.4,0,0,0,3.7,3.2,3,3,0,0,0,3.1-1.8l5.3,1.5c-1.3,3.2-4.5,5.1-8.4,5.1-6.5,0-9.5-5.1-9.5-9.5s2.6-9.4,9.1-9.4c6.9,0,9.2,5.2,9.2,9.1A8.16,8.16,0,0,1,68.08,30.38Zm-5.7-3.5a3.15,3.15,0,0,0-3.3-3c-1.9,0-3,.8-3.4,3Zm-22.9,11.3h5.2l6.6-18.3h-6l-3.2,10.7-3.2-10.8h-6Zm-24.4,0H21V24.78h5.7v13.4h5.9V19.78H21v-1.1a2,2,0,0,1,2.2-2h3.5v-5h-4.4c-4.3,0-7.2,2.7-7.2,6.6v1.5h-3.4v5h3.4Z"/><path class="cls-2" d="M97,38.68a3.7,3.7,0,1,0-3.7-3.7A3.76,3.76,0,0,0,97,38.68Z"/></svg>