<svg id="Layer_1" data-name="Layer 1" xmlns="http://www.w3.org/2000/svg" xmlns:xlink="http://www.w3.org/1999/xlink" viewBox="0 0 48 48"><defs><style>.cls-1{fill:url(#linear-gradient);}.cls-2{fill:url(#linear-gradient-2);}.cls-3{fill:url(#linear-gradient-3);}.cls-4{fill:url(#linear-gradient-4);}</style><linearGradient id="linear-gradient" x1="17.71" y1="45.1" x2="25.42" y2="19.1" gradientTransform="matrix(1, 0, 0, -1, 0, 50)" gradientUnits="userSpaceOnUse"><stop offset="0" stop-color="#0078d3"/><stop offset="1" stop-color="#0858a1"/></linearGradient><linearGradient id="linear-gradient-2" x1="24" y1="33.12" x2="24" y2="16.91" gradientTransform="matrix(1, 0, 0, -1, 0, 50)" gradientUnits="userSpaceOnUse"><stop offset="0" stop-color="#fff"/><stop offset="0.24" stop-color="#f8f8f7"/><stop offset="1" stop-color="#e3e3e1"/></linearGradient><linearGradient id="linear-gradient-3" x1="26.34" y1="17.59" x2="41.33" y2="-3.88" gradientTransform="matrix(1, 0, 0, -1, 0, 50)" gradientUnits="userSpaceOnUse"><stop offset="0" stop-color="#3ccbf4"/><stop offset="1" stop-color="#1fa0e5"/></linearGradient><linearGradient id="linear-gradient-4" x1="-1.91" y1="18.45" x2="43.76" y2="-3.7" gradientTransform="matrix(1, 0, 0, -1, 0, 50)" gradientUnits="userSpaceOnUse"><stop offset="0" stop-color="#28afea"/><stop offset="1" stop-color="#0b88da"/></linearGradient></defs><title>mail</title><path class="cls-1" d="M47.53,34.29H.47v-16a2.47,2.47,0,0,1,1.16-2.09L22,3.35a3.68,3.68,0,0,1,4,0L46.37,16.23a2.47,2.47,0,0,1,1.16,2.09Z"/><path class="cls-2" d="M42.57,38.69H5.43v-21A1.23,1.23,0,0,1,6.66,16.4H41.34a1.23,1.23,0,0,1,1.23,1.24Z"/><path class="cls-3" d="M47.53,18.87V45.19a2.18,2.18,0,0,1-2.2,2.16H6.12l6-7.83Z"/><path class="cls-4" d="M.47,18.87V45.19a2.18,2.18,0,0,0,2.2,2.16H45.33A2.23,2.23,0,0,0,47,46.54Z"/></svg>