<svg id="Layer_1" data-name="Layer 1" xmlns="http://www.w3.org/2000/svg" xmlns:xlink="http://www.w3.org/1999/xlink" viewBox="0 0 228.18 48"><defs><style>.cls-1{fill:url(#linear-gradient);}.cls-2{fill:url(#linear-gradient-2);}.cls-3{fill:url(#linear-gradient-3);}.cls-4{fill:url(#linear-gradient-4);}.cls-5{fill:url(#linear-gradient-5);}</style><linearGradient id="linear-gradient" x1="33.41" y1="44.49" x2="11.68" y2="10.89" gradientUnits="userSpaceOnUse"><stop offset="0" stop-color="#ffda1c"/><stop offset="1" stop-color="#feb705"/></linearGradient><linearGradient id="linear-gradient-2" x1="79.3" y1="44.49" x2="57.57" y2="10.89" xlink:href="#linear-gradient"/><linearGradient id="linear-gradient-3" x1="125.18" y1="44.49" x2="103.45" y2="10.89" xlink:href="#linear-gradient"/><linearGradient id="linear-gradient-4" x1="171.06" y1="44.49" x2="149.33" y2="10.89" xlink:href="#linear-gradient"/><linearGradient id="linear-gradient-5" x1="216.94" y1="44.49" x2="195.21" y2="10.89" xlink:href="#linear-gradient"/></defs><title>stars</title><path class="cls-1" d="M41.7,20.86l-10,9L34.5,43A1,1,0,0,1,33,44.1L21.38,37.37h0L9.72,44.1A1,1,0,0,1,8.24,43L11,29.86l-10-9a1,1,0,0,1,.57-1.74L15,17.71,20.46,5.42a1,1,0,0,1,.91-.59h0a.94.94,0,0,1,.9.59l5.48,12.29,13.38,1.41A1,1,0,0,1,41.7,20.86Z"/><path class="cls-2" d="M87.58,20.86l-10,9L80.38,43A1,1,0,0,1,78.9,44.1L67.26,37.37h0L55.6,44.1A1,1,0,0,1,54.12,43l2.8-13.16-10-9a1,1,0,0,1,.57-1.74l13.37-1.41L66.34,5.42a1,1,0,0,1,.91-.59h0a.94.94,0,0,1,.9.59l5.48,12.29L87,19.12A1,1,0,0,1,87.58,20.86Z"/><path class="cls-3" d="M133.46,20.86l-10,9L126.26,43a1,1,0,0,1-1.48,1.08l-11.64-6.73h0L101.48,44.1A1,1,0,0,1,100,43l2.8-13.16-10-9a1,1,0,0,1,.57-1.74l13.37-1.41,5.48-12.29a1,1,0,0,1,.91-.59h0a.94.94,0,0,1,.9.59l5.48,12.29,13.38,1.41A1,1,0,0,1,133.46,20.86Z"/><path class="cls-4" d="M179.34,20.86l-10,9L172.14,43a1,1,0,0,1-1.48,1.08L159,37.37h0L147.36,44.1A1,1,0,0,1,145.88,43l2.8-13.16-10-9a1,1,0,0,1,.57-1.74l13.37-1.41L158.1,5.42a1,1,0,0,1,.91-.59h0a.94.94,0,0,1,.9.59l5.48,12.29,13.38,1.41A1,1,0,0,1,179.34,20.86Z"/><path class="cls-5" d="M225.22,20.86l-10,9L218,43a1,1,0,0,1-1.48,1.08L204.9,37.37h0L193.24,44.1A1,1,0,0,1,191.76,43l2.8-13.16-10-9a1,1,0,0,1,.57-1.74l13.37-1.41L204,5.42a1,1,0,0,1,.91-.59h0a.94.94,0,0,1,.9.59l5.48,12.29,13.38,1.41A1,1,0,0,1,225.22,20.86Z"/></svg>