<svg id="Layer_1" data-name="Layer 1" xmlns="http://www.w3.org/2000/svg" xmlns:xlink="http://www.w3.org/1999/xlink" viewBox="0 0 48 48"><defs><style>.cls-1{fill:url(#linear-gradient);}.cls-2{fill:url(#linear-gradient-2);}.cls-3{opacity:0.05;}.cls-3,.cls-4{isolation:isolate;}.cls-4{opacity:0.07;}.cls-5{fill:#fff;fill-rule:evenodd;}</style><linearGradient id="linear-gradient" x1="4.31" y1="39.26" x2="37.62" y2="5.96" gradientTransform="matrix(1, 0, 0, -1, 0, 50)" gradientUnits="userSpaceOnUse"><stop offset="0" stop-color="#dfe9f2"/><stop offset="0.39" stop-color="#d6e0e9"/><stop offset="1" stop-color="#bfc8d1"/></linearGradient><linearGradient id="linear-gradient-2" x1="14.49" y1="41.7" x2="30.3" y2="8.21" gradientTransform="matrix(1, 0, 0, -1, 0, 50)" gradientUnits="userSpaceOnUse"><stop offset="0" stop-color="#2ecc75"/><stop offset="1" stop-color="#0b964a"/></linearGradient></defs><title>whatsapp</title><path class="cls-1" d="M40.84,7.28A23.46,23.46,0,0,0,3.68,35.15l-3,11.07a1.18,1.18,0,0,0,1.13,1.49,1.54,1.54,0,0,0,.3,0l11.37-3A23.46,23.46,0,0,0,40.84,7.28Z"/><path class="cls-2" d="M37.35,10.77A18.52,18.52,0,0,0,8.56,33.71l.44.7L7.13,41.24l7-1.84.68.4a18.43,18.43,0,0,0,9.42,2.58h0a18.52,18.52,0,0,0,13.1-31.61Z"/><path class="cls-3" d="M30.34,35.47c-1.17,0-2.77-.3-6-1.56-3.6-1.42-7.12-4.5-9.94-8.67l-.09-.13a11.77,11.77,0,0,1-2.5-6.45A7.29,7.29,0,0,1,14,13.33l.1-.11a3.22,3.22,0,0,1,2.35-1.08c.43,0,.8,0,1.11,0a2.38,2.38,0,0,1,2.28,1.65h0c.29.65.79,1.88,1.18,2.85.25.62.45,1.12.52,1.25a2.17,2.17,0,0,1,0,2l-.08.16a4,4,0,0,1-.64,1l-.27.33c-.19.23-.38.46-.55.64a15.18,15.18,0,0,0,2.73,3.36,13.29,13.29,0,0,0,3.79,2.39l.37.17c.48-.55,1.26-1.49,1.53-1.9a2.05,2.05,0,0,1,2.63-.73c.67.25,3.9,1.85,3.93,1.87l.3.15a2.66,2.66,0,0,1,1.25.94c.46.78.2,2.44-.23,3.65-.63,1.76-3.32,3.29-4.76,3.42l-.26,0C31,35.44,30.69,35.47,30.34,35.47Zm-13.71-21a.85.85,0,0,0-.8.32l-.12.12a5,5,0,0,0-1.52,3.73,9.6,9.6,0,0,0,2,5l.16.23c2.55,3.78,5.69,6.55,8.85,7.8,4,1.56,5,1.44,5.81,1.35l.33,0a4.64,4.64,0,0,0,2.76-1.87,6.22,6.22,0,0,0,.34-1.61l-.17-.08L34,29.32c-.75-.38-3.27-1.61-3.68-1.76-.52.72-1.48,1.84-1.73,2.13a2,2,0,0,1-2.62.42,2.69,2.69,0,0,0-.32-.14,15.72,15.72,0,0,1-4.41-2.8A18,18,0,0,1,17.88,23a1.94,1.94,0,0,1,.43-2.56,7.06,7.06,0,0,0,.46-.54l.31-.37a1.86,1.86,0,0,0,.31-.51l.05-.09c-.11-.24-.33-.77-.59-1.42-.38-.94-.87-2.13-1.15-2.77h0a1.75,1.75,0,0,0-.16-.28h-.91Zm17.83,14.8Zm-15-10.42Z"/><path class="cls-4" d="M30.33,34.89c-1,0-2.53-.26-5.75-1.53C21.1,32,17.67,29,14.92,24.92l-.1-.15a11.18,11.18,0,0,1-2.39-6.11,6.75,6.75,0,0,1,2-4.93l.1-.11a2.59,2.59,0,0,1,1.92-.89h1.09a1.82,1.82,0,0,1,1.76,1.31h0c.29.65.79,1.87,1.18,2.83.26.65.47,1.17.53,1.29a1.63,1.63,0,0,1,0,1.49l-.07.16a3.92,3.92,0,0,1-.56.89l-.29.34a8.51,8.51,0,0,1-.58.67c-.25.25-.25.25-.15.42a15.84,15.84,0,0,0,3,3.72,13.69,13.69,0,0,0,3.95,2.49l.4.18c.35.17.38.14.5,0,.34-.38,1.37-1.6,1.72-2.12a1.45,1.45,0,0,1,1.94-.51c.59.22,3.57,1.69,3.87,1.84l.31.15a2.29,2.29,0,0,1,1,.72,4.92,4.92,0,0,1-.28,3.15c-.57,1.61-3.11,2.93-4.26,3l-.28,0A6.05,6.05,0,0,1,30.33,34.89Zm-13.72-21h-.09a1.5,1.5,0,0,0-1.13.51l-.11.12a5.57,5.57,0,0,0-1.68,4.13,10,10,0,0,0,2.15,5.39l.14.21c2.62,3.88,5.86,6.72,9.12,8,4.12,1.62,5.22,1.49,6.1,1.39l.31,0c.82-.08,2.88-1.19,3.26-2.26A5,5,0,0,0,35,29.16L34.55,29l-.32-.16c-.73-.37-3.29-1.62-3.74-1.78s-.42-.16-.56,0c-.41.61-1.55,2-1.81,2.24a1.48,1.48,0,0,1-1.92.28l-.34-.15a15.34,15.34,0,0,1-4.26-2.7,17.16,17.16,0,0,1-3.21-4,1.39,1.39,0,0,1,.33-1.84c.16-.16.33-.37.51-.59l.3-.36a2.74,2.74,0,0,0,.39-.64l.08-.17c.06-.11.07-.22,0-.45s-.29-.67-.57-1.37c-.38-.94-.87-2.14-1.16-2.78h0c-.27-.6-.42-.61-.74-.62Z"/><path class="cls-5" d="M18.77,14.29c-.42-.93-.86-.94-1.26-1s-.69,0-1.06,0A2.07,2.07,0,0,0,15,14a6.27,6.27,0,0,0-2,4.65c0,2.73,2,5.38,2.28,5.75s3.85,6.17,9.51,8.41c4.7,1.85,5.66,1.48,6.68,1.39s3.29-1.35,3.75-2.65a4.59,4.59,0,0,0,.33-2.64c-.14-.24-.51-.37-1.07-.65s-3.29-1.63-3.8-1.81-.88-.28-1.25.28S28,28.55,27.67,28.92s-.65.42-1.2.14A15.25,15.25,0,0,1,22,26.29a16.64,16.64,0,0,1-3.1-3.85c-.32-.56,0-.86.25-1.14s.55-.65.83-1a4,4,0,0,0,.56-.93,1,1,0,0,0-.05-1C20.34,18.15,19.26,15.39,18.77,14.29Z"/></svg>