<?xml version="1.0" encoding="utf-8"?>
<!-- Generator: Adobe Illustrator 23.1.0, SVG Export Plug-In . SVG Version: 6.00 Build 0)  -->
<svg version="1.1" id="Layer_1" xmlns="http://www.w3.org/2000/svg" xmlns:xlink="http://www.w3.org/1999/xlink" x="0px" y="0px"
	 viewBox="0 0 180 25" style="enable-background:new 0 0 180 25;" xml:space="preserve">
<style type="text/css">
	.st0{fill:#F5F5F7;}
	.st1{fill:url(#SVGID_1_);}
</style>
<g>
	<path class="st0" d="M44.93,18.38h-2.19v-7.91h-0.06l-3.18,7.8h-1.54l-3.18-7.8H34.7v7.91h-2.19V6.65h2.84l3.33,8.31h0.06
		l3.33-8.31h2.84V18.38z"/>
	<path class="st0" d="M54.71,9.67v8.71h-2.29v-1.57h-0.05c-0.46,1.15-1.32,1.73-2.61,1.73c-0.95,0-1.71-0.29-2.28-0.87
		c-0.57-0.58-0.85-1.38-0.85-2.38V9.67H49v5.12c0,0.58,0.14,1.02,0.42,1.32c0.28,0.3,0.68,0.46,1.21,0.46s0.94-0.17,1.25-0.52
		s0.46-0.81,0.46-1.39V9.67H54.71z"/>
	<path class="st0" d="M56.31,18.38V6.65h2.33v4.57h0.05c0.23-0.55,0.58-0.98,1.05-1.27s1.03-0.44,1.69-0.44
		c0.96,0,1.7,0.29,2.24,0.87c0.53,0.58,0.8,1.38,0.8,2.39v5.61H62.1v-5.1c0-0.57-0.14-1.01-0.42-1.33
		c-0.28-0.32-0.68-0.48-1.21-0.48c-0.55,0-0.99,0.18-1.3,0.53c-0.32,0.35-0.48,0.82-0.48,1.4v4.97H56.31z"/>
	<path class="st0" d="M68.56,18.51c-0.84,0-1.54-0.25-2.09-0.74c-0.55-0.49-0.83-1.13-0.83-1.9c0-0.79,0.29-1.41,0.88-1.86
		s1.42-0.71,2.51-0.77l2.19-0.13v-0.58c0-0.4-0.13-0.71-0.39-0.94s-0.62-0.34-1.07-0.34c-0.43,0-0.79,0.1-1.06,0.29
		s-0.44,0.46-0.5,0.79h-2.17c0.04-0.86,0.41-1.54,1.1-2.07c0.69-0.52,1.6-0.78,2.74-0.78c1.12,0,2.01,0.27,2.68,0.8
		s1.01,1.23,1.01,2.11v5.99h-2.29v-1.33h-0.05c-0.24,0.46-0.6,0.81-1.09,1.08S69.12,18.51,68.56,18.51z M69.34,16.8
		c0.53,0,0.97-0.15,1.34-0.46c0.37-0.31,0.55-0.69,0.55-1.16v-0.63l-1.84,0.11c-0.44,0.03-0.79,0.14-1.03,0.33
		C68.13,15.19,68,15.44,68,15.74c0,0.33,0.12,0.58,0.37,0.77S68.94,16.8,69.34,16.8z"/>
	<path class="st0" d="M75.09,18.38V9.67h2.29v1.58h0.05c0.18-0.53,0.5-0.95,0.94-1.27c0.44-0.31,0.96-0.47,1.54-0.47
		c0.63,0,1.15,0.16,1.58,0.47s0.71,0.75,0.85,1.32h0.05c0.2-0.55,0.54-0.98,1.02-1.3C83.9,9.67,84.46,9.5,85.1,9.5
		c0.86,0,1.54,0.27,2.07,0.8c0.52,0.54,0.78,1.24,0.78,2.12v5.95h-2.37v-5.35c0-0.5-0.12-0.89-0.37-1.16
		c-0.24-0.27-0.6-0.4-1.06-0.4c-0.45,0-0.81,0.15-1.08,0.45c-0.27,0.3-0.41,0.69-0.41,1.18v5.29h-2.28v-5.43
		c0-0.47-0.12-0.83-0.37-1.09s-0.59-0.39-1.03-0.39c-0.45,0-0.81,0.15-1.09,0.46c-0.28,0.31-0.42,0.71-0.42,1.19v5.26H75.09z"/>
	<path class="st0" d="M89.45,18.38V9.67h2.29v1.58h0.05c0.18-0.53,0.5-0.95,0.94-1.27s0.96-0.47,1.54-0.47
		c0.63,0,1.15,0.16,1.58,0.47c0.42,0.31,0.71,0.75,0.85,1.32h0.05c0.2-0.55,0.54-0.98,1.02-1.3s1.05-0.48,1.69-0.48
		c0.86,0,1.54,0.27,2.07,0.8c0.52,0.54,0.78,1.24,0.78,2.12v5.95h-2.37v-5.35c0-0.5-0.12-0.89-0.37-1.16
		c-0.24-0.27-0.6-0.4-1.05-0.4c-0.45,0-0.81,0.15-1.09,0.45s-0.41,0.69-0.41,1.18v5.29h-2.28v-5.43c0-0.47-0.13-0.83-0.38-1.09
		c-0.25-0.26-0.59-0.39-1.03-0.39c-0.45,0-0.81,0.15-1.09,0.46s-0.42,0.71-0.42,1.19v5.26H89.45z"/>
	<path class="st0" d="M106.4,18.51c-0.84,0-1.54-0.25-2.09-0.74c-0.55-0.49-0.83-1.13-0.83-1.9c0-0.79,0.29-1.41,0.88-1.86
		s1.42-0.71,2.51-0.77l2.19-0.13v-0.58c0-0.4-0.13-0.71-0.39-0.94s-0.62-0.34-1.07-0.34c-0.43,0-0.79,0.1-1.06,0.29
		s-0.44,0.46-0.5,0.79h-2.17c0.04-0.86,0.41-1.54,1.1-2.07c0.69-0.52,1.6-0.78,2.74-0.78c1.12,0,2.01,0.27,2.68,0.8
		s1.01,1.23,1.01,2.11v5.99h-2.29v-1.33h-0.05c-0.24,0.46-0.6,0.81-1.09,1.08S106.96,18.51,106.4,18.51z M107.18,16.8
		c0.53,0,0.97-0.15,1.34-0.46c0.37-0.31,0.55-0.69,0.55-1.16v-0.63l-1.84,0.11c-0.44,0.03-0.79,0.14-1.03,0.33
		c-0.24,0.19-0.36,0.44-0.36,0.75c0,0.33,0.12,0.58,0.37,0.77S106.77,16.8,107.18,16.8z"/>
	<path class="st0" d="M116.15,18.51c-1.09,0-1.95-0.4-2.59-1.21c-0.64-0.81-0.96-1.91-0.96-3.3c0-1.38,0.32-2.47,0.96-3.27
		c0.64-0.8,1.51-1.2,2.6-1.2c0.62,0,1.16,0.15,1.63,0.45c0.47,0.3,0.81,0.69,1.03,1.19h0.05V6.65h2.37v11.72h-2.34v-1.5h-0.04
		c-0.22,0.49-0.57,0.89-1.05,1.19C117.34,18.37,116.78,18.51,116.15,18.51z M116.96,11.43c-0.6,0-1.07,0.23-1.41,0.7
		s-0.52,1.1-0.52,1.89c0,0.8,0.17,1.43,0.52,1.89c0.34,0.46,0.81,0.69,1.41,0.69c0.59,0,1.06-0.23,1.41-0.7s0.52-1.09,0.52-1.89
		c0-0.79-0.17-1.42-0.52-1.89C118.02,11.66,117.55,11.43,116.96,11.43z"/>
	<path class="st0" d="M127.48,8.08c1.01-1.09,2.39-1.63,4.13-1.63c1.74,0,3.12,0.54,4.13,1.63c1.02,1.09,1.52,2.57,1.52,4.44
		c0,1.86-0.51,3.34-1.53,4.43c-1.02,1.09-2.39,1.63-4.13,1.63c-1.74,0-3.12-0.54-4.13-1.63c-1.02-1.09-1.52-2.56-1.52-4.43
		C125.96,10.65,126.47,9.17,127.48,8.08z M133.9,9.59c-0.57-0.73-1.33-1.09-2.29-1.09c-0.96,0-1.72,0.36-2.29,1.09
		c-0.57,0.73-0.86,1.7-0.86,2.93c0,1.22,0.28,2.2,0.85,2.92c0.57,0.72,1.33,1.08,2.3,1.08c0.96,0,1.72-0.36,2.29-1.08
		c0.57-0.72,0.85-1.7,0.85-2.92C134.76,11.29,134.47,10.31,133.9,9.59z"/>
	<path class="st0" d="M138.45,12.23c0-0.83,0.33-1.49,1-1.99s1.56-0.75,2.67-0.75c1.09,0,1.96,0.25,2.62,0.76
		c0.66,0.51,1,1.19,1.02,2.03h-2.18c-0.03-0.35-0.17-0.63-0.43-0.83c-0.26-0.2-0.61-0.3-1.05-0.3c-0.41,0-0.74,0.09-0.99,0.26
		c-0.25,0.17-0.37,0.4-0.37,0.68c0,0.42,0.38,0.72,1.14,0.9l1.67,0.36c0.87,0.19,1.5,0.48,1.88,0.85s0.57,0.88,0.57,1.53
		c0,0.86-0.36,1.54-1.07,2.06c-0.71,0.52-1.65,0.78-2.8,0.78c-1.15,0-2.07-0.25-2.75-0.76c-0.69-0.51-1.06-1.19-1.13-2.05h2.32
		c0.06,0.37,0.23,0.65,0.51,0.85c0.28,0.2,0.65,0.3,1.13,0.3c0.45,0,0.8-0.08,1.06-0.25c0.26-0.17,0.39-0.39,0.39-0.68
		c0-0.22-0.08-0.4-0.24-0.53s-0.44-0.25-0.83-0.34l-1.61-0.36C139.28,14.37,138.45,13.53,138.45,12.23z"/>
	<path class="st0" d="M149.75,18.51c-0.84,0-1.54-0.25-2.09-0.74c-0.55-0.49-0.83-1.13-0.83-1.9c0-0.79,0.29-1.41,0.88-1.86
		s1.42-0.71,2.51-0.77l2.19-0.13v-0.58c0-0.4-0.13-0.71-0.39-0.94s-0.62-0.34-1.07-0.34c-0.43,0-0.79,0.1-1.06,0.29
		s-0.44,0.46-0.5,0.79h-2.17c0.04-0.86,0.41-1.54,1.1-2.07c0.69-0.52,1.6-0.78,2.74-0.78c1.12,0,2.01,0.27,2.68,0.8
		s1.01,1.23,1.01,2.11v5.99h-2.29v-1.33h-0.05c-0.24,0.46-0.6,0.81-1.09,1.08S150.31,18.51,149.75,18.51z M150.53,16.8
		c0.53,0,0.97-0.15,1.34-0.46c0.37-0.31,0.55-0.69,0.55-1.16v-0.63l-1.84,0.11c-0.44,0.03-0.79,0.14-1.03,0.33
		c-0.24,0.19-0.36,0.44-0.36,0.75c0,0.33,0.12,0.58,0.37,0.77S150.13,16.8,150.53,16.8z"/>
	<path class="st0" d="M156.28,18.38V9.67h2.29v1.58h0.05c0.18-0.53,0.5-0.95,0.94-1.27s0.96-0.47,1.54-0.47
		c0.63,0,1.15,0.16,1.58,0.47c0.42,0.31,0.71,0.75,0.85,1.32h0.05c0.19-0.55,0.53-0.98,1.02-1.3c0.48-0.32,1.05-0.48,1.69-0.48
		c0.86,0,1.54,0.27,2.07,0.8s0.78,1.24,0.78,2.12v5.95h-2.37v-5.35c0-0.5-0.12-0.89-0.37-1.16c-0.24-0.27-0.6-0.4-1.06-0.4
		c-0.45,0-0.81,0.15-1.08,0.45s-0.41,0.69-0.41,1.18v5.29h-2.28v-5.43c0-0.47-0.13-0.83-0.37-1.09s-0.59-0.39-1.03-0.39
		c-0.45,0-0.81,0.15-1.09,0.46c-0.28,0.31-0.42,0.71-0.42,1.19v5.26H156.28z"/>
	<path class="st0" d="M173.22,18.51c-0.84,0-1.54-0.25-2.09-0.74c-0.55-0.49-0.83-1.13-0.83-1.9c0-0.79,0.29-1.41,0.88-1.86
		s1.42-0.71,2.51-0.77l2.19-0.13v-0.58c0-0.4-0.13-0.71-0.39-0.94s-0.62-0.34-1.07-0.34c-0.43,0-0.79,0.1-1.06,0.29
		s-0.44,0.46-0.5,0.79h-2.17c0.04-0.86,0.41-1.54,1.1-2.07c0.69-0.52,1.6-0.78,2.74-0.78c1.12,0,2.01,0.27,2.68,0.8
		s1.01,1.23,1.01,2.11v5.99h-2.29v-1.33h-0.05c-0.24,0.46-0.6,0.81-1.09,1.08S173.78,18.51,173.22,18.51z M174,16.8
		c0.53,0,0.97-0.15,1.34-0.46c0.37-0.31,0.55-0.69,0.55-1.16v-0.63l-1.84,0.11c-0.44,0.03-0.79,0.14-1.03,0.33
		c-0.24,0.19-0.36,0.44-0.36,0.75c0,0.33,0.12,0.58,0.37,0.77S173.6,16.8,174,16.8z"/>
</g>
<g>
	<linearGradient id="SVGID_1_" gradientUnits="userSpaceOnUse" x1="4.6996" y1="21.3306" x2="22.346" y2="3.6841">
		<stop  offset="0" style="stop-color:#25A1F8"/>
		<stop  offset="1" style="stop-color:#036AE0"/>
	</linearGradient>
	<circle class="st1" cx="13.52" cy="12.51" r="12.48"/>
	<path class="st0" d="M13.52,19.5c-3.85,0-6.99-3.14-6.99-6.99s3.14-6.99,6.99-6.99s6.99,3.14,6.99,6.99S17.38,19.5,13.52,19.5z
		 M13.52,8.43c-2.25,0-4.08,1.83-4.08,4.08s1.83,4.08,4.08,4.08s4.08-1.83,4.08-4.08S15.77,8.43,13.52,8.43z"/>
</g>
</svg>
